PathFileType	4	(X/Y/Z)	E-squat_0-154.trc
DataRate	CameraRate	NumFrames	NumMarkers	Units	OrigDataRate	OrigDataStartFrame	OrigNumFrames
30	30	8	22	m	30	19	154
Frame#	Time	Hip			RHip			RKnee			RAnkle			RBigToe			RSmallToe			RHeel			LHip			LKnee			LAnkle			LBigToe			LSmallToe			LHeel			Neck			Head			Nose			RShoulder			RElbow			RWrist			LShoulder			LElbow			LWrist			
		X1	Y1	Z1	X2	Y2	Z2	X3	Y3	Z3	X4	Y4	Z4	X5	Y5	Z5	X6	Y6	Z6	X7	Y7	Z7	X8	Y8	Z8	X9	Y9	Z9	X10	Y10	Z10	X11	Y11	Z11	X12	Y12	Z12	X13	Y13	Z13	X14	Y14	Z14	X15	Y15	Z15	X16	Y16	Z16	X17	Y17	Z17	X18	Y18	Z18	X19	Y19	Z19	X20	Y20	Z20	X21	Y21	Z21	X22	Y22	Z22	
19	0.6333333333333333	-0.00518981695992209	0.5400289418170001	-0.12309759683941349	-0.10984255124796657	0.5373736696225527	-0.12942798522236762	-0.11779420962146818	0.3470600982888889	0.2134592081606697	-0.1414058826880664	-0.00040804175358472874	0.026208480613206245	-0.1161160108929859	-0.08001567951222713	0.1816482582269741	-0.17845221488506002	-0.07858525759025745	0.1568035871222911	-0.13012106218043626	-0.0563089452063819	-0.029070692071471088	0.10695703025128518	0.5309385720360281	-0.0829728288081747	0.12478918979964523	0.333594401886727	0.22461666298841204	0.1298134907471797	0.00495055706050652	0.022055657859102427	0.1346887705018328	-0.08219617738858004	0.1768236451679211	0.1885405074935094	-0.07303737292643978	0.15413566717440755	0.11181391380846073	-0.05155627764277598	-0.056180816541631734	0.012295143789836038	0.8409727477732823	0.35433742347897823	0.024250310438447224	1.0419776713652569	0.4891654260020123	0.021215755499166943	0.918645457156016	0.5167828173141072	-0.14713887379541069	0.7876683303938183	0.3076280920665122	-0.2453378781335285	0.5471665107135498	0.181937194917668	-0.298681799082152	0.3041126208832885	0.17622864281729012	0.16545038790900585	0.7922419660272686	0.30310606846001426	0.2336783565083355	0.5267150002811514	0.1576863810813414	0.2689016529110183	0.28072976871362415	0.15037753800498066	
20	0.6666666666666666	-0.0021322463548820603	0.5318423290942946	-0.12202054857824594	-0.10775075293806094	0.5308980798820356	-0.13110859433774827	-0.11885233421723351	0.34788644721532935	0.21276468898676124	-0.14118389847576307	-0.0005317846479700031	0.025353719398740305	-0.11675702357881207	-0.07926421973430203	0.18176058064280198	-0.1791534916139058	-0.0788119485119486	0.1565559202562947	-0.1296845551375805	-0.0564790913524884	-0.028864238798466613	0.10909031640993253	0.5250124558055745	-0.08065674344341785	0.1245907155355229	0.33311867447503235	0.22518263979682604	0.12999193175830545	0.00665423756843071	0.021132118515318918	0.1349705698187372	-0.08125006497174295	0.1761461476174204	0.18968436121737528	-0.07254267654780465	0.15342248518701398	0.1112693764794139	-0.049723358058704384	-0.059431974794761894	0.012979234640657675	0.8319892184199762	0.3548022557964382	0.023947074462493875	1.031594815267814	0.493223411613246	0.023494423368090957	0.9095772655155584	0.5172103101671057	-0.14720447129998337	0.7784500768102854	0.30937884740884597	-0.24479383971482507	0.5383951724556192	0.18265264992116945	-0.29736462366494465	0.29425480935925863	0.1785465780085966	0.16612416000857694	0.7836322630110676	0.3037471427499916	0.23591524889661078	0.5182937677193177	0.1598505264685988	0.27199398274604775	0.2719339252348975	0.15005101617159322	
21	0.7	-0.0006651471436062101	0.5288419295603525	-0.12112757770017628	-0.10627424151243883	0.5283049424237161	-0.13150926195770418	-0.1197031402738493	0.34767463712491803	0.2147291700973893	-0.14077529970825123	0.00040954075174686827	0.02511086302873564	-0.11747189394158151	-0.07909156952416732	0.1810788273771982	-0.17905197329102174	-0.07870957540496945	0.15589662862044867	-0.1280221552011503	-0.05604353740404999	-0.029363976985698394	0.10966255547353419	0.5230970758698189	-0.08128685786575832	0.12735779953087295	0.33144450046210255	0.22457457492222394	0.13061123103639105	0.007921199572468349	0.02292715265806263	0.13578378318017653	-0.0806474272345691	0.1759994813212563	0.1900836337875631	-0.07261803814611473	0.15351799803293498	0.11097435528825383	-0.04787827712745208	-0.059378855907189304	0.01329834072508947	0.8323647250573614	0.3529128981842446	0.024176676744702558	1.0303154736176574	0.49878755343951464	0.025219009317453894	0.9085424607504737	0.5164511840913295	-0.14755895052957924	0.7786052079696192	0.3091386538275739	-0.2429315875096178	0.5395690263485703	0.1824194122165964	-0.2951849547393508	0.29538296185362356	0.1783508424520564	0.16652884801325826	0.7845028082482999	0.3015060761852289	0.23679799577319358	0.5206221396791161	0.1602656025096642	0.274371211526606	0.2743775232039877	0.14790729601354743	
22	0.7333333333333333	-0.0002914386584049213	0.5313707110750588	-0.12040600441537537	-0.10495957148748003	0.5306508134840492	-0.1305971132211438	-0.1197657086391648	0.3468521482387307	0.2170834712414124	-0.13951634500853805	0.0015212718002104732	0.025751798441194712	-0.11822729549070504	-0.07917342121046615	0.1804894900114709	-0.17884972295593582	-0.0781557509370944	0.1554084011528827	-0.12569602319589307	-0.05507402233793229	-0.029791591460232626	0.10994964144289575	0.5254242034945235	-0.08218479444538819	0.13030551878297114	0.3291113279602479	0.22363057265050804	0.1311067971378995	0.007997273925632833	0.02705593071390576	0.13717068230181934	-0.08049865419192564	0.1762280875732756	0.18985643273840486	-0.07258736369082862	0.15453884985555455	0.11097166087349533	-0.04668555867161636	-0.055075728524444194	0.014141622261653154	0.841790940197171	0.350233365627464	0.025136472369708663	1.038044259059649	0.5026783869027469	0.026162604267030005	0.9168063789584799	0.5147336645347133	-0.1468005097239793	0.7875943407285185	0.3075029244078685	-0.23988772474970826	0.5495018156129233	0.18095453721556243	-0.2919016556920718	0.306384995721808	0.1759115543649355	0.16725333321197347	0.7937493982664796	0.2983304763159388	0.23626018695334722	0.5324317475205282	0.15820531818257103	0.2751721363795402	0.28764789165548305	0.14481622073101214	
23	0.7666666666666667	-3.5409730316246415e-05	0.5396432397659311	-0.11868711594256125	-0.10376310920337123	0.5392100320547147	-0.1290621912835157	-0.11897704777795223	0.3467741559904134	0.21640658680609687	-0.13812806725474208	0.0013398692316092759	0.02636832964594479	-0.11839320739445658	-0.07963419060500122	0.1802983959767553	-0.17893181964582255	-0.07792987214368052	0.1554226073551332	-0.12437864309816439	-0.054042415840393994	-0.029731576759923665	0.11054024022779102	0.5333178207788917	-0.08015512015135612	0.1309007090257079	0.3285927520309882	0.22267917152185945	0.131040661114906	0.007583008920041395	0.03234674612378722	0.13825777262460134	-0.07997511931745224	0.17603144993028913	0.1894035621979847	-0.07155135247963873	0.15548900868929866	0.1115238516476068	-0.04517147516270821	-0.04739425489267271	0.015486084470736112	0.8616379031519841	0.3475706372236708	0.02626913990084215	1.0570051048655915	0.5017591658802465	0.02730619168177286	0.9369357748113025	0.5113962219275181	-0.1450336600023385	0.8053166933662322	0.30553874728952546	-0.23586599828190344	0.5673044630443885	0.17821480228812167	-0.2882117810744933	0.32621137111532245	0.17143273480809043	0.168526107541296	0.8106335165029646	0.29598414746608975	0.23494402758705202	0.5532240509573921	0.15353627746226267	0.2737735019875148	0.3108852342666316	0.14100819193446348	
24	0.8	0.0007607089594228538	0.5538460876781875	-0.11440673373060808	-0.10279318758668225	0.5546583312806455	-0.1270618440979841	-0.11731759592638702	0.3484618177591711	0.21020667463342763	-0.13776365996608983	-0.00021684209767230584	0.02561457782501455	-0.11744468044206059	-0.0807261535081893	0.1800184512057224	-0.1791730495219234	-0.07855173136738468	0.1553813379889049	-0.12554766481812976	-0.053609650627068184	-0.02972193367343342	0.11100023741071521	0.5476620484440168	-0.0734167611052857	0.1293263217160733	0.33089218221891337	0.22171565907931312	0.13030841561029693	0.007566760688002494	0.035757781050212746	0.13815129354358152	-0.0790295780370328	0.17555717628120618	0.189235212813309	-0.0701370538917495	0.1551009403339375	0.1123876784727113	-0.04280970004773957	-0.04004930081559154	0.016603278451286545	0.8910588889479073	0.3445184724485237	0.02678432697851354	1.0875865185114937	0.49492631391186703	0.029138388841929274	0.9680433763488572	0.5057184435678815	-0.14352315433550997	0.8310130188235233	0.30224597103784345	-0.23121488530256853	0.5918345984939506	0.175080689560084	-0.28490675866197607	0.35301145826615266	0.16495067612278103	0.16943524636175986	0.8349200023166139	0.29416715094206786	0.23356576243884464	0.5816664209262429	0.14920538065922082	0.27053563447579626	0.3408163275950002	0.1379994112129107	
25	0.8333333333333334	0.001680292495420691	0.5730891282864312	-0.10565807886648278	-0.10214588829853566	0.5757548412712163	-0.12289616582263511	-0.11554876468017877	0.35131715333482555	0.1993121841836051	-0.13869309449610126	-0.0019512744848147977	0.023655795165012122	-0.11585072044699524	-0.08189082045440578	0.17987664976570406	-0.17886417658354556	-0.08001602003117939	0.1546778273671883	-0.1285055595882337	-0.0541843434809027	-0.029747334537845192	0.11060291366470953	0.5674563260138719	-0.06272289933551406	0.12824651338149748	0.3346996011469677	0.2196995500978696	0.1290812418596371	0.007428551407070484	0.03417141515398949	0.13714852355475587	-0.07859168017293547	0.17558465450787736	0.18930248396640303	-0.07008974247381179	0.15293030458250026	0.112805324442605	-0.04061002973267437	-0.037427076260969416	0.01768702650672713	0.9274729233276316	0.34052225525642726	0.026531660261990633	1.1267862754838203	0.483674731194877	0.0319736991710249	1.0060332193960928	0.4981691000944074	-0.14313883230770244	0.8636568501839332	0.2957392408130842	-0.22643057499221933	0.6223346445630984	0.1724788243339005	-0.281722655952348	0.38454979962505875	0.15730518783396025	0.1697701160815943	0.8663389644894582	0.29252169073299883	0.23261120792546452	0.6157012036608976	0.14837899543406186	0.26650454448304145	0.3736362657134382	0.13721591326328336	
26	0.8666666666666667	0.002123188382087799	0.5956608109180899	-0.09229352424310668	-0.10159217477361365	0.599656109033984	-0.11471301357929863	-0.1145804319728991	0.35563514763268755	0.18936839606472564	-0.14045734443895924	-0.0028565611567203044	0.02218782062925489	-0.1149323925701078	-0.08258582115028025	0.180821890243198	-0.17755819166646117	-0.08198121142393998	0.15394585125891186	-0.13103766259164817	-0.055829897962774946	-0.029381249764902195	0.10959609382676239	0.5906982118106163	-0.050689157291239365	0.12963742198997433	0.338996354516208	0.21567259843355846	0.12808189997307579	0.006423848904249065	0.029083425312473557	0.1364580686346677	-0.07876906607631057	0.17591834748419685	0.18916536083998564	-0.0718052420905385	0.14989654336083855	0.1127450142117504	-0.03975057444966579	-0.03888939754372789	0.01970591977380208	0.9699101043895947	0.3351159957604609	0.026198120027277765	1.1714224445392225	0.4701730363509934	0.03582385328250546	1.0488237341346731	0.48975580367613475	-0.1431782941845806	0.902988661167718	0.2876169884645372	-0.22186930530282106	0.6586542724294382	0.17081870593580314	-0.277260691873411	0.4199586032493382	0.1503888460268137	0.17077967576029934	0.9049628164843126	0.2907442353065012	0.23186263513662367	0.6544527311218609	0.1501707363778961	0.2622390633575386	0.40903564448733337	0.13534471036094226	
